<?xml version="1.0" encoding="UTF-8"?>
<svg version="1.1" xmlns="http://www.w3.org/2000/svg" width="246" height="288">
<path d="M0 0 C81.18 0 162.36 0 246 0 C246 95.04 246 190.08 246 288 C164.82 288 83.64 288 0 288 C0 192.96 0 97.92 0 0 Z " fill="#FEFEFE" transform="translate(0,0)"/>
<path d="M0 0 C2.08557296 0.90318598 4.1715484 1.80544287 6.2578125 2.70703125 C8.06233887 3.4952124 8.06233887 3.4952124 9.90332031 4.29931641 C14.91428976 6.47690976 19.95361975 8.58646506 24.9921875 10.69921875 C26.96371975 11.52681896 28.9352365 12.35445612 30.90673828 13.18212891 C32.3903183 13.80489716 32.3903183 13.80489716 33.90386963 14.44024658 C34.88434265 14.85184021 35.86481567 15.26343384 36.875 15.6875 C37.82437439 16.08588074 38.77374878 16.48426147 39.75189209 16.89471436 C46.22075529 19.61238758 52.67674473 22.35881732 59.125 25.125 C60.06093994 25.52354187 60.99687988 25.92208374 61.96118164 26.33270264 C64.7142923 27.5096806 67.45949392 28.70346005 70.203125 29.90234375 C71.44240753 30.42871178 71.44240753 30.42871178 72.70672607 30.9657135 C78.80380867 33.66321041 82.79086145 36.54873246 85.9375 42.625 C95.23874418 71.75820734 75.93318773 114.41248489 62.75 140 C58.20380939 148.5934474 53.09895085 156.46659088 47.125 164.125 C46.42117187 165.05054688 45.71734375 165.97609375 44.9921875 166.9296875 C31.21051081 184.47462645 8.56037791 207.94892612 -14.20703125 212.6015625 C-31.84470239 213.65704518 -49.22097947 197.64704813 -61.76171875 186.78686523 C-78.77917768 171.66474969 -91.02677011 153.55858903 -100.875 133.125 C-101.18163574 132.48965332 -101.48827148 131.85430664 -101.80419922 131.19970703 C-110.73121579 112.36406183 -115.46979142 90.89610583 -118.515625 70.3671875 C-118.8217978 68.18398447 -118.8217978 68.18398447 -119.37597656 66.33789062 C-120.45116968 61.57000883 -120.27522121 56.61698765 -120.375 51.75 C-120.42914063 50.6259375 -120.48328125 49.501875 -120.5390625 48.34375 C-120.67229957 40.29242394 -120.67229957 40.29242394 -118.49658203 37.10668945 C-115.02942323 34.01302734 -110.99248334 31.92333349 -106.75 30.0625 C-105.75742188 29.61777344 -104.76484375 29.17304687 -103.7421875 28.71484375 C-100.55397748 27.37171796 -97.32418754 26.14916909 -94.08984375 24.921875 C-86.32429467 21.9524664 -78.67493228 18.72275551 -71.02069092 15.47903442 C-68.51811262 14.41869309 -66.01436483 13.36115974 -63.51025391 12.30444336 C-60.17796687 10.89822834 -56.84592048 9.49144689 -53.51416016 8.08398438 C-47.26280952 5.4437581 -41.00906495 2.80940052 -34.75 0.1875 C-33.78666748 -0.21879639 -32.82333496 -0.62509277 -31.83081055 -1.04370117 C-30.95593994 -1.40955322 -30.08106934 -1.77540527 -29.1796875 -2.15234375 C-28.43702637 -2.46421631 -27.69436523 -2.77608887 -26.92919922 -3.09741211 C-17.60511032 -6.62691331 -8.74932228 -3.93558965 0 0 Z " fill="#FFD601" transform="translate(119.875,59.875)"/>
<path d="M0 0 C2.75687945 1.32453426 5.04847337 1.28565716 8.09765625 1.3828125 C22.12557796 2.32428376 35.13536192 8.62460393 44.87109375 18.875 C49.34403175 24.48253691 52.45475911 30.3288232 55.51953125 36.7734375 C58.19314589 42.25302394 59.88586185 44.90555393 65.09765625 48.0078125 C69.59353753 52.42834382 70.9367317 55.5939442 71.34765625 61.7578125 C71.2530186 66.83985442 70.21833114 71.65556966 66.73828125 75.515625 C64.50846284 77.43510786 62.23261451 78.94117686 59.59765625 80.2421875 C56.32650596 82.55243739 55.53373349 84.77964159 53.97265625 88.4453125 C48.90240072 99.45336871 40.7416424 108.11630725 30.09765625 114.0078125 C29.41960937 114.39453125 28.7415625 114.78125 28.04296875 115.1796875 C16.74732946 121.24505023 2.65100181 121.95689633 -9.7421875 119.1328125 C-24.60369345 113.76075803 -36.12151698 103.26295968 -42.90234375 89.0078125 C-43.20140625 88.28207031 -43.50046875 87.55632812 -43.80859375 86.80859375 C-45.98813554 81.72612776 -47.93110709 80.13327709 -53 78 C-56.53711592 76.15517979 -58.30668611 72.90013985 -59.4765625 69.18359375 C-60.64999642 63.18723875 -61.33579217 56.29185258 -57.83984375 51.0078125 C-55.74966295 48.51499064 -54.47661322 47.80254957 -51.40234375 46.3203125 C-46.7912792 43.99490495 -45.92755654 39.84987178 -44.203125 35.23828125 C-40.20656342 25.31288657 -33.52816097 16.72297482 -24.58984375 10.8203125 C-21.62590094 8.82137433 -20.57542386 7.11496128 -18.90234375 4.0078125 C-14.64351557 -1.21893118 -6.08852101 -3.17553252 0 0 Z " fill="#4C91E2" transform="translate(96.90234375,103.9921875)"/>
<path d="M0 0 C2.75687945 1.32453426 5.04847337 1.28565716 8.09765625 1.3828125 C22.12557796 2.32428376 35.13536192 8.62460393 44.87109375 18.875 C49.34403175 24.48253691 52.45475911 30.3288232 55.51953125 36.7734375 C58.19314589 42.25302394 59.88586185 44.90555393 65.09765625 48.0078125 C69.59353753 52.42834382 70.9367317 55.5939442 71.34765625 61.7578125 C71.2530186 66.83985442 70.21833114 71.65556966 66.73828125 75.515625 C64.50846284 77.43510786 62.23261451 78.94117686 59.59765625 80.2421875 C56.32650596 82.55243739 55.53373349 84.77964159 53.97265625 88.4453125 C48.90240072 99.45336871 40.7416424 108.11630725 30.09765625 114.0078125 C29.41960937 114.39453125 28.7415625 114.78125 28.04296875 115.1796875 C16.74732946 121.24505023 2.65100181 121.95689633 -9.7421875 119.1328125 C-24.60369345 113.76075803 -36.12151698 103.26295968 -42.90234375 89.0078125 C-43.20140625 88.28207031 -43.50046875 87.55632812 -43.80859375 86.80859375 C-45.98813554 81.72612776 -47.93110709 80.13327709 -53 78 C-56.53711592 76.15517979 -58.30668611 72.90013985 -59.4765625 69.18359375 C-60.64999642 63.18723875 -61.33579217 56.29185258 -57.83984375 51.0078125 C-55.74966295 48.51499064 -54.47661322 47.80254957 -51.40234375 46.3203125 C-46.7912792 43.99490495 -45.92755654 39.84987178 -44.203125 35.23828125 C-40.20656342 25.31288657 -33.52816097 16.72297482 -24.58984375 10.8203125 C-21.62590094 8.82137433 -20.57542386 7.11496128 -18.90234375 4.0078125 C-14.64351557 -1.21893118 -6.08852101 -3.17553252 0 0 Z M9.09765625 7.0078125 C10.79348362 12.24946072 13.59804628 16.66186867 18.53515625 19.3203125 C21.37438088 20.08205569 24.18703012 20.60167862 27.09765625 21.0078125 C26.43747573 26.61934696 23.83473688 30.40786982 19.72265625 34.1953125 C11.98038401 39.54116714 4.30185053 40.9557328 -4.98046875 39.734375 C-10.66504399 38.58444184 -14.79031779 36.18974634 -18.08984375 31.21875 C-20.71305045 26.37739058 -21.95294938 21.40436998 -22.90234375 16.0078125 C-32.20274856 23.51967792 -40.99020428 32.87369111 -42.77734375 45.2578125 C-42.81859375 46.1653125 -42.85984375 47.0728125 -42.90234375 48.0078125 C-43.95421875 48.2140625 -45.00609375 48.4203125 -46.08984375 48.6328125 C-49.44279347 49.64823833 -51.86227989 51.01257806 -54.01953125 53.8984375 C-55.99543082 58.61961346 -55.80288775 64.04550454 -54.90234375 69.0078125 C-52.77481381 72.68362122 -50.69686564 74.2013505 -46.90625 75.8359375 C-42.12156642 78.04715038 -40.78527442 81.03358473 -38.83984375 85.7578125 C-35.95109732 92.0995192 -33.03097179 97.17598006 -27.90234375 102.0078125 C-27.40734375 102.52214844 -26.91234375 103.03648437 -26.40234375 103.56640625 C-18.30816557 111.35705275 -8.80146381 115.66299977 2.34765625 115.5703125 C5.27560814 115.47270394 8.18079295 115.2771396 11.09765625 115.0078125 C12.06960937 114.92144531 13.0415625 114.83507812 14.04296875 114.74609375 C25.40392052 113.04743054 35.58368097 106.49418458 43.09765625 98.0078125 C47.06552694 92.49199908 50.67754611 86.94016976 52.59765625 80.3828125 C54.09765625 77.0078125 54.09765625 77.0078125 55.94140625 76 C57.3576107 75.51253832 58.78663994 75.06059882 60.2265625 74.6484375 C62.84042156 73.75350454 63.82231654 72.40845195 65.09765625 70.0078125 C66.96433666 64.40777127 66.98321147 58.95603399 64.53515625 53.5703125 C62.24751469 50.74738933 62.24751469 50.74738933 58.66015625 49.9453125 C55.74730893 48.90015072 55.17728164 48.17013489 53.78125 45.32421875 C52.9715264 43.05538925 52.17935225 40.78024064 51.40234375 38.5 C46.23284925 24.66308957 36.48325738 16.0146023 23.48046875 9.74609375 C18.46153291 7.57223856 14.5596309 6.53285818 9.09765625 7.0078125 Z " fill="#FAFBF9" transform="translate(96.90234375,103.9921875)"/>
<path d="M0 0 C3.91894473 1.69036028 5.71705611 3.90570566 8.2421875 7.24609375 C12.72453197 11.71847746 17.78780674 12.48105449 23.875 12.6875 C24.56335938 12.72166016 25.25171875 12.75582031 25.9609375 12.79101562 C27.64008613 12.87264091 29.32001168 12.9380157 31 13 C29.84670162 16.05987723 28.70738848 18.43891729 26.875 21.1875 C24.28339587 25.65243595 24.31626781 29.97024593 25 35 C25.82160845 37.77938402 26.87173296 40.32036579 28 43 C28 43.99 28 44.98 28 46 C21.25 45.125 21.25 45.125 19 44 C11.84692419 42.96117156 7.66722339 44.80601707 2 49 C0.8369102 49.77621985 -0.32940834 50.54764034 -1.5 51.3125 C-2.325 51.869375 -3.15 52.42625 -4 53 C-5.8099918 51.1900082 -5.21588943 48.25536725 -5.3125 45.8125 C-5.73540436 40.34452535 -6.04754259 37.04656354 -10 33 C-13.57529713 30.19230989 -17.24009598 27.5541417 -21 25 C-18.63771225 22.25943741 -16.52916507 21.32049719 -13.125 20.1875 C-8.54643237 18.39472752 -5.19555237 16.55175491 -3 12 C-1.75511126 8.04267075 -0.80948453 4.06716616 0 0 Z " fill="#4C91E2" transform="translate(205,10)"/>
<path d="M0 0 C0.4375 2.5625 0.4375 2.5625 0 5 C-0.66 5.66 -1.32 6.32 -2 7 C-3.84545898 6.84790039 -3.84545898 6.84790039 -6.05859375 6.28515625 C-6.86409668 6.08422363 -7.66959961 5.88329102 -8.49951172 5.67626953 C-13.12788148 4.42450384 -17.73842658 3.12175509 -22.33789062 1.76757812 C-44.64308741 -4.61359745 -69.35169288 -1.97465967 -90.79296875 6.109375 C-94.07732535 7.02147403 -95.78547046 6.99281138 -99 6 C-99.33 4.35 -99.66 2.7 -100 1 C-96.16204104 -2.43839063 -91.57900111 -3.84567349 -86.8125 -5.5625 C-85.99974609 -5.86607422 -85.18699219 -6.16964844 -84.34960938 -6.48242188 C-59.41104009 -15.58886842 -22.45073386 -16.2144189 0 0 Z " fill="#FFD70C" transform="translate(156,24)"/>
<path d="M0 0 C2.5150608 2.12812837 3.73916282 3.66892367 4.37890625 6.93359375 C4.60465169 10.78583043 4.24428248 12.61729077 2.125 15.9375 C-0.40638195 18.39442954 -1.37971141 18.91909279 -4.875 19.375 C-8 19 -8 19 -10.3125 16.625 C-13.0037568 12.43860054 -13.42749117 10.04439576 -13 5 C-9.18865766 -0.84405826 -6.78368246 -1.63744059 0 0 Z " fill="#F7FAFD" transform="translate(130,160)"/>
<path d="M0 0 C2.85164655 2.31214585 4.76321903 4.27826411 5.2734375 7.98828125 C5.46324732 12.33200605 5.42338161 14.38983238 2.875 18.0625 C0 20 0 20 -3 20.625 C-7.2173448 19.7463865 -8.57388349 18.56781839 -11 15 C-11.70630612 11.52542958 -11.70630612 8.47457042 -11 5 C-7.94168747 0.50248158 -5.42442969 -1.03872058 0 0 Z " fill="#F9FBFE" transform="translate(82,159)"/>
<path d="M0 0 C0.99 0 1.98 0 3 0 C4.34331654 1.99330842 5.67594012 3.99384866 7 6 C11.16157385 8.63712364 15.22123268 8.53927062 20 8 C23.49216307 6.70660627 25.39519843 5.8467222 27.5625 2.8125 C28.036875 2.214375 28.51125 1.61625 29 1 C31.6875 0.75 31.6875 0.75 34 1 C33.91923469 3.74602064 33.42778275 5.5043537 31.62109375 7.59765625 C26.70554121 12.07333832 22.25089416 13.63878954 15.625 14.375 C9.59944025 13.75166623 4.81980088 11.68981511 0.375 7.5625 C-1 5 -1 5 -0.75 2.1875 C-0.5025 1.465625 -0.255 0.74375 0 0 Z " fill="#F0F6FC" transform="translate(86,188)"/>
</svg>
